General
Complete name                    : Big Wednesday.mkv
Format                           : Matroska
File size                        : 1.39 GiB
Duration                         : 1h 54mn
Overall bit rate                 : 1 737 Kbps


Video
ID                               : 1
Format                           : AVC
Duration                         : 1h 54mn
Bit rate                         : 1 015 Kbps
Width                            : 716 pixels
Height                           : 430 pixels
Display aspect ratio             : 2.35:1
Frame rate                       : 25.000 fps
Resolution                       : 8 bits
Colorimetry                      : 4:2:0
Scan type                        : Progressive
Bits/(Pixel*Frame)               : 0.132
Stream size                      : 833 MiB (58%)
Writing library                  : x264 core 79


Audio #1
ID                               : 2
Format                           : AC-3
Format/Info                      : Audio Coding 3
Format profile                   : Dolby Digital
Codec ID                         : A_AC3
Duration                         : 1h 54mn
Bit rate mode                    : Constant
Bit rate                         : 192 Kbps
Channel(s)                       : 2 channels
Channel positions                : L R
Sampling rate                    : 48.0 KHz
Stream size                      : 158 MiB (11%)
Language                         : English

Audio #2
ID                               : 3
Format                           : AC-3
Format/Info                      : Audio Coding 3
Codec ID                         : A_AC3
Duration                         : 1h 54mn
Bit rate mode                    : Constant
Bit rate                         : 192 Kbps
Channel(s)                       : 1 channel
Channel positions                : C
Sampling rate                    : 48.0 KHz
Stream size                      : 158 MiB (11%)
Language                         : German

Audio #3
ID                               : 4
Format                           : AC-3
Format/Info                      : Audio Coding 3
Codec ID                         : A_AC3
Duration                         : 1h 54mn
Bit rate mode                    : Constant
Bit rate                         : 192 Kbps
Channel(s)                       : 1 channel
Channel positions                : C
Sampling rate                    : 48.0 KHz
Stream size                      : 158 MiB (11%)
Language                         : Spanish

Audio #4
ID                               : Directors Commentary!
Format                           : MPEG Audio
Format version                   : Version 1
Format profile                   : Layer 3
Mode                             : Joint stereo
Codec ID                         : A_MPEG/L3
Codec ID/Hint                    : MP3
Duration                         : 1h 54mn
Bit rate mode                    : Constant
Bit rate                         : 112 Kbps
Channel(s)                       : 2 channels
Sampling rate                    : 48.0 KHz
Stream size                      : 91.9 MiB (6%)
Writing library                  : LAME3.98
Language                         : English

Text #1
Language                         : English

Text #2
Language                         : German

Text #3
Language                         : Spanish

Text #4
Language                         : French

Text #5
Language                         : Italian

Text #6
Language                         : Swedish

Text #7
Language                         : Norwegian

Text #8
Language                         : Finnish

Text #9
Language                         : Croatian

Text #10

Language                         : Czech

Text #11
Language                         : Greek

Text #12
Language                         : unknown (Please Help!)

Text #13
Language                         : Hungarian

Text #14
Language                         : Icelandic

Text #15
Language                         : Polish

Text #16
Language                         : Portuguese

Text #17
Language                         : Turkish

Text #18
Language                         : English

Text #19
Language                         : German


